<svg width="57" height="56" viewBox="0 0 57 56" fill="none" xmlns="http://www.w3.org/2000/svg">
<rect y="4" width="52" height="52" rx="3" fill="black"/>
<path d="M26 24.44V27.77" stroke="#5A5656" stroke-width="1.5" stroke-miterlimit="10" stroke-linecap="round"/>
<path d="M26.0199 20C22.3399 20 19.3599 22.98 19.3599 26.66V28.76C19.3599 29.44 19.0799 30.46 18.7299 31.04L17.4599 33.16C16.6799 34.47 17.2199 35.93 18.6599 36.41C23.4399 38 28.6099 38 33.3899 36.41C34.7399 35.96 35.3199 34.38 34.5899 33.16L33.3199 31.04C32.9699 30.46 32.6899 29.43 32.6899 28.76V26.66C32.6799 23 29.6799 20 26.0199 20Z" stroke="#5A5656" stroke-width="1.5" stroke-miterlimit="10" stroke-linecap="round"/>
<path d="M29.3299 36.82C29.3299 38.65 27.8299 40.15 25.9999 40.15C25.0899 40.15 24.2499 39.77 23.6499 39.17C23.0499 38.57 22.6699 37.73 22.6699 36.82" stroke="#5A5656" stroke-width="1.5" stroke-miterlimit="10"/>
<circle cx="52" cy="5.89648" r="5" fill="#FFBC0F"/>
</svg>
